<mxfile host="app.diagrams.net" agent="Mozilla/5.0 (Windows NT 10.0; Win64; x64) AppleWebKit/537.36 (KHTML, like Gecko) Chrome/126.0.0.0 YaBrowser/24.7.0.0 Safari/537.36" version="24.7.16">
  <diagram name="Page-1" id="e56a1550-8fbb-45ad-956c-1786394a9013">
    <mxGraphModel dx="1451" dy="781" grid="1" gridSize="10" guides="1" tooltips="1" connect="1" arrows="1" fold="1" page="1" pageScale="1" pageWidth="1100" pageHeight="850" background="none" math="0" shadow="0">
      <root>
        <mxCell id="0" />
        <mxCell id="1" parent="0" />
        <mxCell id="3ZCuMvAgLJN2T8h-9Ba0-1" value="Dice" style="swimlane;fontStyle=0;childLayout=stackLayout;horizontal=1;startSize=26;horizontalStack=0;resizeParent=1;resizeParentMax=0;resizeLast=0;collapsible=1;marginBottom=0;align=center;fontSize=14;" vertex="1" parent="1">
          <mxGeometry x="40" y="170" width="280" height="86" as="geometry" />
        </mxCell>
        <mxCell id="3ZCuMvAgLJN2T8h-9Ba0-2" value="int Value - значение на кубике" style="text;strokeColor=none;fillColor=none;spacingLeft=4;spacingRight=4;overflow=hidden;rotatable=0;points=[[0,0.5],[1,0.5]];portConstraint=eastwest;fontSize=12;whiteSpace=wrap;html=1;" vertex="1" parent="3ZCuMvAgLJN2T8h-9Ba0-1">
          <mxGeometry y="26" width="280" height="30" as="geometry" />
        </mxCell>
        <mxCell id="3ZCuMvAgLJN2T8h-9Ba0-3" value="Shake() - бросить кубик" style="text;strokeColor=none;fillColor=none;spacingLeft=4;spacingRight=4;overflow=hidden;rotatable=0;points=[[0,0.5],[1,0.5]];portConstraint=eastwest;fontSize=12;whiteSpace=wrap;html=1;" vertex="1" parent="3ZCuMvAgLJN2T8h-9Ba0-1">
          <mxGeometry y="56" width="280" height="30" as="geometry" />
        </mxCell>
        <mxCell id="3ZCuMvAgLJN2T8h-9Ba0-5" value="Player" style="swimlane;fontStyle=0;childLayout=stackLayout;horizontal=1;startSize=26;horizontalStack=0;resizeParent=1;resizeParentMax=0;resizeLast=0;collapsible=1;marginBottom=0;align=center;fontSize=14;" vertex="1" parent="1">
          <mxGeometry x="680" y="160" width="400" height="116" as="geometry" />
        </mxCell>
        <mxCell id="3ZCuMvAgLJN2T8h-9Ba0-6" value="Item 1" style="text;strokeColor=none;fillColor=none;spacingLeft=4;spacingRight=4;overflow=hidden;rotatable=0;points=[[0,0.5],[1,0.5]];portConstraint=eastwest;fontSize=12;whiteSpace=wrap;html=1;" vertex="1" parent="3ZCuMvAgLJN2T8h-9Ba0-5">
          <mxGeometry y="26" width="400" height="30" as="geometry" />
        </mxCell>
        <mxCell id="3ZCuMvAgLJN2T8h-9Ba0-7" value="Item 2" style="text;strokeColor=none;fillColor=none;spacingLeft=4;spacingRight=4;overflow=hidden;rotatable=0;points=[[0,0.5],[1,0.5]];portConstraint=eastwest;fontSize=12;whiteSpace=wrap;html=1;" vertex="1" parent="3ZCuMvAgLJN2T8h-9Ba0-5">
          <mxGeometry y="56" width="400" height="30" as="geometry" />
        </mxCell>
        <mxCell id="3ZCuMvAgLJN2T8h-9Ba0-8" value="Item 3" style="text;strokeColor=none;fillColor=none;spacingLeft=4;spacingRight=4;overflow=hidden;rotatable=0;points=[[0,0.5],[1,0.5]];portConstraint=eastwest;fontSize=12;whiteSpace=wrap;html=1;" vertex="1" parent="3ZCuMvAgLJN2T8h-9Ba0-5">
          <mxGeometry y="86" width="400" height="30" as="geometry" />
        </mxCell>
      </root>
    </mxGraphModel>
  </diagram>
</mxfile>
